<?xml version="1.0" encoding="UTF-8"?>
<!-- Generator: Adobe Illustrator 25.2.1, SVG Export Plug-In . SVG Version: 6.00 Build 0)  -->
<svg version="1.1" xmlns="http://www.w3.org/2000/svg" xmlns:xlink="http://www.w3.org/1999/xlink" x="0px" y="0px" viewBox="0 0 1356.15 275.79" style="enable-background:new 0 0 1356.15 275.79;" xml:space="preserve">
<style type="text/css">
	.st0{fill:#6AB651;}
	.st1{fill:#C67227;}
	.st2{fill:#4285A7;}
	.st3{fill:#DD3A2E;}
	.st4{fill:#432C8C;}
	.st5{fill:#C02D5B;}
	.st6{fill:#6B2E86;}
	.st7{fill:url(#SVGID_1_);}
	.st8{fill:url(#SVGID_2_);}
	.st9{fill:url(#SVGID_3_);}
	.st10{fill:url(#SVGID_4_);}
	.st11{fill:url(#SVGID_5_);}
	.st12{fill:url(#SVGID_6_);}
	.st13{fill:url(#SVGID_7_);}
	.st14{fill:url(#SVGID_8_);}
</style>
<g id="Layer_1">
</g>
<g id="Layer_2">
	<g id="_x23_6ab651ff">
		<path class="st0" d="M89.62,0h0.54c4.81,3.58,10.68,5.24,16.02,7.83c12.19,5.66,24.59,10.88,36.68,16.78    c-19.54-2.46-40.01-0.84-58,7.56c-3.91,1.83-7.28,5.04-11.76,5.4C77.73,24.72,84.37,12.62,89.62,0z"/>
		<path class="st0" d="M199.98,55.93c4.18,1.26,8.36,2.46,12.58,3.55c-2.54,9.69-6.03,19.14-8.41,28.88    c-7.08-1.07-14.37-5.65-21.54-8.54C188.32,71.81,196.36,65.28,199.98,55.93z"/>
	</g>
	<g id="_x23_c67227ff">
		<path class="st1" d="M62.54,41.19c2.99-0.94,5.95-2.33,9.12-2.35c-2.03,3.34-5.25,5.58-7.94,8.34    C53.47,57.42,47.43,71.38,46.22,85.76c-0.38,4.71-1.62,9.33-4.11,13.38c-5.65-15.08-9.83-30.65-15.41-45.76    C38.46,48.75,50.67,45.45,62.54,41.19z"/>
	</g>
	<g id="_x23_4285a7fd">
		<path class="st2" d="M171.9,91.11c4.62-2.63,7.46-7.25,10.72-11.28c7.17,2.89,14.45,5.47,21.54,8.54    c4.79,1.97,9.66,3.73,14.48,5.61c-4.01,10.35-7.7,20.87-12.15,31.06c-3.88,6.9-6.59,14.35-10.07,21.44    c-9.64-13.21-23.93-22.03-39.14-27.51C162.37,109.81,166.58,100.16,171.9,91.11z"/>
	</g>
	<g id="_x23_dd3a2eff">
		<path class="st3" d="M42.11,99.14c2.49-4.05,3.73-8.67,4.11-13.38c-1.22,13.99,1.49,28.59,9.28,40.41    c8.08,13.1,21.47,22.11,35.52,27.76c-8.93,10.27-17.08,21.35-27.41,30.32c-6.85,7.99-13.38,16.28-20.28,24.23    c-11.13-4.54-22.2-9.26-33.43-13.53c-3.1-2.06-6.69-3.32-9.91-5.19v-0.81c2.44-1.04,3.77-6.74,5.38-10.22    c9.51-20.66,19.44-41.1,28.95-61.75C37.01,111.08,40.25,105.38,42.11,99.14z"/>
	</g>
	<g id="_x23_432c8cff">
		<path class="st4" d="M196.41,146.48c3.48-7.08,6.19-14.53,10.07-21.44c7.42,31.87,13.74,64.01,21.17,95.87    c-5.02,1.34-10.11,2.46-15.23,3.3c0.18-1.16,0.56-3.5,0.76-4.67c-5.14-1.37-10.31-2.59-15.52-3.62    C209.09,194.71,209.03,167.16,196.41,146.48z"/>
	</g>
	<g id="_x23_c02d5bff">
		<path class="st5" d="M9.91,194.95c11.23,4.26,22.29,8.98,33.43,13.53c-1.95,2.46-4.57,4.72-5.2,7.91    c-1.72,8.13,7.89,11.05,12.55,15.66c-14.95-1.02-29.84-2.68-44.77-3.96C7.6,217.07,7.55,205.84,9.91,194.95z"/>
		<path class="st5" d="M74.41,244.86c15.49,5.91,31.97,8.77,48.52,9c1.14,0.5,3.44,1.49,4.57,2l0.02,0.38    c-5.78,6.04-11.59,12.34-15.79,19.55h-0.58C99.38,264.98,86.73,255.07,74.41,244.86z"/>
	</g>
	<g id="_x23_6b2e86ff">
		<path class="st6" d="M161.79,246.18c14.6-6.09,28.19-16.15,35.87-30.25c5.22,1.02,10.39,2.25,15.52,3.62    c-0.2,1.17-0.58,3.52-0.76,4.67c-2.86,15.31-5.86,30.59-8.64,45.91c-25.45-4.41-50.73-10.09-76.26-13.89l-0.02-0.38    c-1.14-0.51-3.44-1.5-4.57-2C136.11,253,149.56,251.53,161.79,246.18z"/>
	</g>
</g>
<g id="Layer_3">
	<g>
		<g>
			<linearGradient id="SVGID_1_" gradientUnits="userSpaceOnUse" x1="753.5211" y1="27.7338" x2="753.5211" y2="248.7855">
				<stop offset="0" style="stop-color:#FFFFFF"/>
				<stop offset="1" style="stop-color:#999999"/>
			</linearGradient>
			<path class="st7" d="M120.55,248.79c-13.95,0-27.85-2.56-41.69-7.68c-13.85-5.12-26.22-12.8-37.11-21.05l27.47-31.03     c7.63,6.54,16.07,11.88,25.34,16.02c9.26,4.14,18.36,6.21,27.3,6.21c10.02,0,17.49-1.85,22.4-5.56c4.9-3.7,7.36-8.72,7.36-15.04     c0-3.27-0.71-6.1-2.13-8.5c-1.42-2.4-3.49-4.52-6.21-6.38c-2.73-1.85-6-3.6-9.81-5.23c-3.82-1.64-8.01-3.43-12.59-5.4     l-27.79-11.77c-5.45-2.18-10.74-5.01-15.86-8.5c-5.12-3.48-9.7-7.57-13.73-12.26c-4.04-4.69-7.25-10.14-9.65-16.35     c-2.4-6.21-3.6-13.24-3.6-21.09c0-8.72,1.85-16.95,5.56-24.69c3.7-7.74,8.94-14.5,15.7-20.27c6.75-5.77,14.77-10.3,24.03-13.57     c9.26-3.27,19.46-4.9,30.57-4.9c12.43,0,24.69,2.4,36.79,7.19c12.1,4.8,22.73,11.77,31.88,20.93l-24.52,30.41     c-6.98-5.45-13.95-9.65-20.93-12.59c-6.98-2.94-14.71-4.41-23.22-4.41c-8.29,0-14.88,1.69-19.78,5.07     c-4.9,3.38-7.36,8.12-7.36,14.22c0,3.27,0.82,6.05,2.45,8.34c1.63,2.29,3.92,4.36,6.87,6.21c2.94,1.85,6.38,3.6,10.3,5.23     c3.92,1.63,8.17,3.43,12.75,5.4l27.47,11.12c11.08,5.23,23.38,12.43,30.9,21.58c7.52,9.16,11.28,21.25,11.28,36.3     c0,8.94-1.8,17.39-5.4,25.34c-3.6,7.96-8.83,14.93-15.7,20.93c-6.87,6-15.32,10.79-25.34,14.39     C144.53,246.99,133.19,248.79,120.55,248.79z"/>
			<linearGradient id="SVGID_2_" gradientUnits="userSpaceOnUse" x1="753.5211" y1="27.7338" x2="753.5211" y2="248.7855">
				<stop offset="0" style="stop-color:#FFFFFF"/>
				<stop offset="1" style="stop-color:#999999"/>
			</linearGradient>
			<path class="st8" d="M273.91,244.86V169L209.49,31.66h51.67l18.97,49.05c1.05,8.07,5.94,15.86,8.67,23.38     c2.72,7.52,5.61,15.43,8.67,23.71h1.31c1.05-8.28,6.05-16.19,8.99-23.71s5.94-15.31,8.99-23.38l19.29-49.05h50.36L321.98,169     v75.86H273.91z"/>
			<linearGradient id="SVGID_3_" gradientUnits="userSpaceOnUse" x1="753.5211" y1="27.7338" x2="753.5211" y2="248.7855">
				<stop offset="0" style="stop-color:#FFFFFF"/>
				<stop offset="1" style="stop-color:#999999"/>
			</linearGradient>
			<path class="st9" d="M408.96,244.86V31.66h49.38l55.59,105.95l20.93,47.09h1.31c-1.09-11.33-2.34-23.98-3.76-37.93     c-1.42-13.95-2.12-27.25-2.12-39.89V31.66h45.78v213.2h-49.38l-55.59-106.27l-20.93-46.43h-1.31     c1.09,11.77,2.34,24.42,3.76,37.93c1.42,13.52,2.12,26.6,2.12,39.24v75.54H408.96z"/>
			<linearGradient id="SVGID_4_" gradientUnits="userSpaceOnUse" x1="753.5211" y1="27.7338" x2="753.5211" y2="248.7855">
				<stop offset="0" style="stop-color:#FFFFFF"/>
				<stop offset="1" style="stop-color:#999999"/>
			</linearGradient>
			<path class="st10" d="M599.27,244.86l66.71-213.2h57.88l66.71,213.2h-51.01l-11.08-50.68H661.4l-11.08,50.68H599.27z      M676.45,136.95l-5.23,19.62h45.45l-4.9-19.62c-1.06-10.68-6-22.02-8.83-34.01c-2.84-11.99-5.67-23.54-8.5-34.66h-1.31     c-2.62,11.34-5.29,22.95-8.01,34.83C682.38,114.99,679.5,126.27,676.45,136.95z"/>
			<linearGradient id="SVGID_5_" gradientUnits="userSpaceOnUse" x1="753.5211" y1="27.7338" x2="753.5211" y2="248.7855">
				<stop offset="0" style="stop-color:#FFFFFF"/>
				<stop offset="1" style="stop-color:#999999"/>
			</linearGradient>
			<path class="st11" d="M813.78,244.86V31.66h73.25c11.77,0,22.78,1.14,31.03,3.43c10.24,2.29,19.18,6.11,26.81,11.44     c7.63,5.34,13.68,12.43,18.15,21.26c4.47,8.83,6.7,19.68,6.7,32.54c0,12.43-2.24,23.22-6.7,32.37     c-4.47,9.16-10.52,16.68-18.15,22.56c-7.63,5.89-16.46,10.25-26.49,11.08c-10.03,2.84-20.71,4.25-32.05,4.25h-26.49v72.27H813.78     z M861.85,134.34h23.54c26.16,0,39.24-11.33,39.24-34.01c0-11.12-3.49-18.97-10.46-23.54c-6.98-4.58-17-6.87-30.08-6.87h-22.24     V134.34z"/>
			<linearGradient id="SVGID_6_" gradientUnits="userSpaceOnUse" x1="753.5211" y1="27.7338" x2="753.5211" y2="248.7855">
				<stop offset="0" style="stop-color:#FFFFFF"/>
				<stop offset="1" style="stop-color:#999999"/>
			</linearGradient>
			<path class="st12" d="M1073.75,248.79c-13.95,0-27.85-2.56-41.69-7.68c-13.85-5.12-26.22-12.8-37.11-21.05l27.47-31.03     c7.63,6.54,16.07,11.88,25.34,16.02c9.26,4.14,18.36,6.21,27.3,6.21c10.03,0,17.5-1.85,22.4-5.56c4.9-3.7,7.36-8.72,7.36-15.04     c0-3.27-0.71-6.1-2.13-8.5c-1.42-2.4-3.49-4.52-6.21-6.38c-2.73-1.85-6-3.6-9.81-5.23c-3.82-1.64-8.01-3.43-12.59-5.4     l-27.79-11.77c-5.45-2.18-10.74-5.01-15.86-8.5c-5.12-3.48-9.7-7.57-13.73-12.26c-4.04-4.69-7.25-10.14-9.65-16.35     c-2.4-6.21-3.6-13.24-3.6-21.09c0-8.72,1.85-16.95,5.56-24.69c3.7-7.74,8.94-14.5,15.7-20.27c6.75-5.77,14.77-10.3,24.03-13.57     c9.26-3.27,19.46-4.9,30.57-4.9c12.43,0,24.69,2.4,36.79,7.19c12.1,4.8,22.73,11.77,31.88,20.93l-24.53,30.41     c-6.98-5.45-13.95-9.65-20.93-12.59c-6.98-2.94-14.71-4.41-23.22-4.41c-8.29,0-14.88,1.69-19.78,5.07     c-4.91,3.38-7.36,8.12-7.36,14.22c0,3.27,0.82,6.05,2.45,8.34c1.64,2.29,3.92,4.36,6.87,6.21c2.94,1.85,6.38,3.6,10.3,5.23     c3.92,1.63,8.17,3.43,12.75,5.4l27.47,11.12c11.08,5.23,23.38,12.43,30.9,21.58c7.52,9.16,11.28,21.25,11.28,36.3     c0,8.94-1.8,17.39-5.4,25.34c-3.6,7.96-8.83,14.93-15.7,20.93c-6.87,6-15.32,10.79-25.34,14.39     C1097.73,246.99,1086.39,248.79,1073.75,248.79z"/>
			<linearGradient id="SVGID_7_" gradientUnits="userSpaceOnUse" x1="753.5211" y1="27.7338" x2="753.5211" y2="248.7855">
				<stop offset="0" style="stop-color:#FFFFFF"/>
				<stop offset="1" style="stop-color:#999999"/>
			</linearGradient>
			<path class="st13" d="M1190.49,244.86V31.66h133.42v40.55h-85.35v42.84h72.59v40.22h-72.59v49.05h88.62v40.55H1190.49z"/>
		</g>
	</g>
</g>
</svg>